<svg width="114" height="44" viewBox="0 0 114 44" fill="none" xmlns="http://www.w3.org/2000/svg">
<path d="M12.48 25.08C11.904 24.968 11.376 24.8 10.896 24.576C10.416 24.336 9.976 24.08 9.576 23.808C9.176 23.52 8.816 23.224 8.496 22.92C8.176 22.6 7.896 22.296 7.656 22.008L5.304 19.104C5.032 18.784 4.736 18.4 4.416 17.952C4.112 17.504 3.824 17.064 3.552 16.632C3.6 17.032 3.64 17.456 3.672 17.904C3.72 18.336 3.744 18.736 3.744 19.104V30H2.28V13.368H2.736L9.12 21.504C9.232 21.68 9.4 21.872 9.624 22.08L16.8 13.368H17.256V30H15.792V19.104C15.792 18.704 15.808 18.256 15.84 17.76C15.888 17.248 15.936 16.784 15.984 16.368C15.648 16.832 15.296 17.32 14.928 17.832C14.56 18.328 14.224 18.752 13.92 19.104L10.656 22.968C10.976 23.192 11.312 23.4 11.664 23.592C12.032 23.768 12.424 23.904 12.84 24L12.48 25.08ZM22.4269 25.2C22.5709 26.448 22.9629 27.392 23.6029 28.032C24.2589 28.672 25.2109 28.992 26.4589 28.992C27.1309 28.992 27.7709 28.88 28.3789 28.656C28.9869 28.432 29.5949 28.16 30.2029 27.84L30.8269 28.848C30.2669 29.232 29.6109 29.56 28.8589 29.832C28.1229 30.104 27.3229 30.24 26.4589 30.24C24.6509 30.24 23.2829 29.712 22.3549 28.656C21.4429 27.584 20.9869 26.056 20.9869 24.072C20.9869 23.24 21.1069 22.448 21.3469 21.696C21.6029 20.944 21.9549 20.28 22.4029 19.704C22.8669 19.128 23.4189 18.672 24.0589 18.336C24.6989 17.984 25.4109 17.808 26.1949 17.808C26.7869 17.808 27.3469 17.896 27.8749 18.072C28.4029 18.232 28.8589 18.472 29.2429 18.792C29.6429 19.096 29.9549 19.48 30.1789 19.944C30.4189 20.392 30.5389 20.896 30.5389 21.456C30.5389 22.16 30.3869 22.752 30.0829 23.232C29.7789 23.712 29.3789 24.096 28.8829 24.384C28.4029 24.672 27.8429 24.88 27.2029 25.008C26.5789 25.136 25.9309 25.2 25.2589 25.2H22.4269ZM26.1949 18.984C25.6189 18.984 25.0909 19.128 24.6109 19.416C24.1469 19.704 23.7469 20.08 23.4109 20.544C23.0749 21.008 22.8109 21.536 22.6189 22.128C22.4429 22.72 22.3549 23.328 22.3549 23.952H25.2589C26.0749 23.952 26.7389 23.88 27.2509 23.736C27.7629 23.576 28.1629 23.376 28.4509 23.136C28.7389 22.896 28.9309 22.632 29.0269 22.344C29.1229 22.04 29.1709 21.744 29.1709 21.456C29.1709 20.704 28.8909 20.104 28.3309 19.656C27.7869 19.208 27.0749 18.984 26.1949 18.984ZM41.3756 30V21.936C41.3756 20.928 41.1596 20.2 40.7276 19.752C40.3116 19.288 39.7116 19.056 38.9276 19.056C38.6076 19.056 38.2796 19.112 37.9436 19.224C37.6076 19.32 37.2796 19.472 36.9596 19.68C36.6556 19.888 36.3756 20.136 36.1196 20.424C35.8636 20.712 35.6556 21.04 35.4956 21.408V21.528V30H34.1756V21.528C34.1756 20.888 34.0956 20.336 33.9356 19.872C33.7756 19.408 33.5356 19.008 33.2156 18.672L34.0316 17.88C34.3996 18.152 34.6796 18.472 34.8716 18.84C35.0796 19.192 35.2316 19.576 35.3276 19.992C35.7596 19.256 36.2956 18.712 36.9356 18.36C37.5916 17.992 38.3036 17.808 39.0716 17.808C39.8556 17.808 40.5436 17.992 41.1356 18.36C41.7276 18.728 42.1596 19.288 42.4316 20.04C42.8956 19.272 43.4636 18.712 44.1356 18.36C44.8076 17.992 45.4716 17.808 46.1276 17.808C47.2796 17.808 48.1996 18.144 48.8876 18.816C49.5916 19.488 49.9436 20.44 49.9436 21.672C49.9436 22.248 49.9276 22.776 49.8956 23.256C49.8796 23.72 49.8556 24.16 49.8236 24.576C49.8076 24.992 49.7836 25.392 49.7516 25.776C49.7356 26.16 49.7276 26.544 49.7276 26.928C49.7276 27.456 49.7676 27.96 49.8476 28.44C49.9276 28.92 50.0796 29.44 50.3036 30H49.0316C48.7756 29.52 48.6076 28.984 48.5276 28.392C48.4476 27.784 48.4076 27.248 48.4076 26.784C48.4076 26.4 48.4156 26.04 48.4316 25.704C48.4476 25.368 48.4636 25.016 48.4796 24.648C48.5116 24.264 48.5356 23.856 48.5516 23.424C48.5836 22.992 48.5996 22.496 48.5996 21.936C48.5996 20.944 48.3916 20.216 47.9756 19.752C47.5756 19.288 46.9676 19.056 46.1516 19.056C44.6796 19.056 43.5276 19.848 42.6956 21.432V21.672V30H41.3756ZM58.8088 30.24C57.9128 30.24 57.0968 30.088 56.3608 29.784C55.6248 29.48 54.9928 29.056 54.4648 28.512C53.9528 27.952 53.5528 27.296 53.2648 26.544C52.9768 25.792 52.8328 24.968 52.8328 24.072C52.8328 23.176 52.9768 22.352 53.2648 21.6C53.5528 20.832 53.9528 20.168 54.4648 19.608C54.9928 19.048 55.6248 18.608 56.3608 18.288C57.0968 17.968 57.9128 17.808 58.8088 17.808C59.7048 17.808 60.5128 17.968 61.2328 18.288C61.9688 18.592 62.5928 19.024 63.1048 19.584C63.6328 20.128 64.0408 20.784 64.3288 21.552C64.6168 22.304 64.7608 23.12 64.7608 24C64.7608 24.896 64.6168 25.728 64.3288 26.496C64.0408 27.264 63.6328 27.928 63.1048 28.488C62.5928 29.032 61.9688 29.464 61.2328 29.784C60.5128 30.088 59.7048 30.24 58.8088 30.24ZM58.8088 19.056C58.1048 19.056 57.4728 19.176 56.9128 19.416C56.3528 19.656 55.8648 19.992 55.4488 20.424C55.0488 20.856 54.7368 21.376 54.5128 21.984C54.3048 22.592 54.2008 23.264 54.2008 24C54.2008 24.752 54.3048 25.44 54.5128 26.064C54.7368 26.672 55.0488 27.192 55.4488 27.624C55.8648 28.056 56.3528 28.392 56.9128 28.632C57.4728 28.872 58.1048 28.992 58.8088 28.992C59.4968 28.992 60.1208 28.872 60.6808 28.632C61.2568 28.376 61.7448 28.032 62.1448 27.6C62.5448 27.152 62.8488 26.624 63.0568 26.016C63.2808 25.392 63.3928 24.704 63.3928 23.952C63.3928 23.216 63.2808 22.552 63.0568 21.96C62.8488 21.352 62.5448 20.832 62.1448 20.4C61.7448 19.968 61.2568 19.64 60.6808 19.416C60.1208 19.176 59.4968 19.056 58.8088 19.056ZM74.2091 19.248C74.0651 19.232 73.9051 19.208 73.7291 19.176C73.5851 19.144 73.4171 19.12 73.2251 19.104C73.0491 19.088 72.8491 19.08 72.6251 19.08C71.9691 19.08 71.3771 19.288 70.8491 19.704C70.3211 20.12 69.8491 20.696 69.4331 21.432V21.528V30H68.1131V21.528C68.1131 20.888 68.0331 20.336 67.8731 19.872C67.7131 19.408 67.4731 19.008 67.1531 18.672L67.9691 17.88C68.3371 18.152 68.6251 18.472 68.8331 18.84C69.0411 19.192 69.1931 19.576 69.2891 19.992C69.7051 19.256 70.1931 18.712 70.7531 18.36C71.3131 17.992 71.9931 17.808 72.7931 17.808C72.9691 17.808 73.1451 17.816 73.3211 17.832C73.4971 17.848 73.6491 17.872 73.7771 17.904C73.9371 17.936 74.0811 17.968 74.2091 18V19.248ZM77.1066 25.2C77.2506 26.448 77.6426 27.392 78.2826 28.032C78.9386 28.672 79.8906 28.992 81.1386 28.992C81.8106 28.992 82.4506 28.88 83.0586 28.656C83.6666 28.432 84.2746 28.16 84.8826 27.84L85.5066 28.848C84.9466 29.232 84.2906 29.56 83.5386 29.832C82.8026 30.104 82.0026 30.24 81.1386 30.24C79.3306 30.24 77.9626 29.712 77.0346 28.656C76.1226 27.584 75.6666 26.056 75.6666 24.072C75.6666 23.24 75.7866 22.448 76.0266 21.696C76.2826 20.944 76.6346 20.28 77.0826 19.704C77.5466 19.128 78.0986 18.672 78.7386 18.336C79.3786 17.984 80.0906 17.808 80.8746 17.808C81.4666 17.808 82.0266 17.896 82.5546 18.072C83.0826 18.232 83.5386 18.472 83.9226 18.792C84.3226 19.096 84.6346 19.48 84.8586 19.944C85.0986 20.392 85.2186 20.896 85.2186 21.456C85.2186 22.16 85.0666 22.752 84.7626 23.232C84.4586 23.712 84.0586 24.096 83.5626 24.384C83.0826 24.672 82.5226 24.88 81.8826 25.008C81.2586 25.136 80.6106 25.2 79.9386 25.2H77.1066ZM80.8746 18.984C80.2986 18.984 79.7706 19.128 79.2906 19.416C78.8266 19.704 78.4266 20.08 78.0906 20.544C77.7546 21.008 77.4906 21.536 77.2986 22.128C77.1226 22.72 77.0346 23.328 77.0346 23.952H79.9386C80.7546 23.952 81.4186 23.88 81.9306 23.736C82.4426 23.576 82.8426 23.376 83.1306 23.136C83.4186 22.896 83.6106 22.632 83.7066 22.344C83.8026 22.04 83.8506 21.744 83.8506 21.456C83.8506 20.704 83.5706 20.104 83.0106 19.656C82.4666 19.208 81.7546 18.984 80.8746 18.984ZM89.5753 25.2C89.7193 26.448 90.1113 27.392 90.7513 28.032C91.4073 28.672 92.3593 28.992 93.6073 28.992C94.2793 28.992 94.9193 28.88 95.5273 28.656C96.1353 28.432 96.7433 28.16 97.3513 27.84L97.9753 28.848C97.4153 29.232 96.7593 29.56 96.0073 29.832C95.2713 30.104 94.4713 30.24 93.6073 30.24C91.7993 30.24 90.4313 29.712 89.5033 28.656C88.5913 27.584 88.1353 26.056 88.1353 24.072C88.1353 23.24 88.2553 22.448 88.4953 21.696C88.7513 20.944 89.1033 20.28 89.5513 19.704C90.0153 19.128 90.5673 18.672 91.2073 18.336C91.8473 17.984 92.5593 17.808 93.3433 17.808C93.9353 17.808 94.4953 17.896 95.0233 18.072C95.5513 18.232 96.0073 18.472 96.3913 18.792C96.7913 19.096 97.1033 19.48 97.3273 19.944C97.5673 20.392 97.6873 20.896 97.6873 21.456C97.6873 22.16 97.5353 22.752 97.2313 23.232C96.9273 23.712 96.5273 24.096 96.0313 24.384C95.5513 24.672 94.9913 24.88 94.3513 25.008C93.7273 25.136 93.0793 25.2 92.4073 25.2H89.5753ZM93.3433 18.984C92.7673 18.984 92.2393 19.128 91.7593 19.416C91.2953 19.704 90.8953 20.08 90.5593 20.544C90.2233 21.008 89.9593 21.536 89.7673 22.128C89.5913 22.72 89.5033 23.328 89.5033 23.952H92.4073C93.2233 23.952 93.8873 23.88 94.3993 23.736C94.9113 23.576 95.3113 23.376 95.5993 23.136C95.8873 22.896 96.0793 22.632 96.1753 22.344C96.2713 22.04 96.3193 21.744 96.3193 21.456C96.3193 20.704 96.0393 20.104 95.4793 19.656C94.9353 19.208 94.2233 18.984 93.3433 18.984ZM101.204 12.576H102.524V26.568C102.524 27.208 102.604 27.76 102.764 28.224C102.924 28.688 103.164 29.088 103.484 29.424L102.668 30.216C102.364 30.008 102.116 29.76 101.924 29.472C101.732 29.184 101.58 28.88 101.468 28.56C101.372 28.24 101.3 27.912 101.252 27.576C101.22 27.24 101.204 26.904 101.204 26.568V12.576Z" fill="#0096C6"/>
<path d="M12.48 25.08L12.2891 26.0616L13.151 26.2292L13.4287 25.3962L12.48 25.08ZM10.896 24.576L10.4488 25.4704L10.4609 25.4765L10.4731 25.4822L10.896 24.576ZM9.576 23.808L8.9917 24.6195L9.00259 24.6274L9.01369 24.6349L9.576 23.808ZM8.496 22.92L7.78889 23.6271L7.79796 23.6362L7.80725 23.645L8.496 22.92ZM7.656 22.008L6.87883 22.6374L6.88778 22.6482L7.656 22.008ZM5.304 19.104L6.0811 18.4746L6.07363 18.4654L6.06594 18.4564L5.304 19.104ZM4.416 17.952L3.58852 18.5135L3.59528 18.5235L3.60227 18.5332L4.416 17.952ZM3.552 16.632L4.39823 16.0992L2.55912 16.7511L3.552 16.632ZM3.672 17.904L2.67454 17.9752L2.67594 17.9949L2.67812 18.0144L3.672 17.904ZM3.744 30V31H4.744V30H3.744ZM2.28 30H1.28V31H2.28V30ZM2.28 13.368V12.368H1.28V13.368H2.28ZM2.736 13.368L3.52272 12.7507L3.22244 12.368H2.736V13.368ZM9.12 21.504L9.96366 20.9671L9.93718 20.9255L9.90672 20.8867L9.12 21.504ZM9.624 22.08L8.94355 22.8128L9.72118 23.5349L10.3959 22.7158L9.624 22.08ZM16.8 13.368V12.368H16.3281L16.0281 12.7322L16.8 13.368ZM17.256 13.368H18.256V12.368H17.256V13.368ZM17.256 30V31H18.256V30H17.256ZM15.792 30H14.792V31H15.792V30ZM15.84 17.76L14.8444 17.6667L14.843 17.6811L14.8421 17.6956L15.84 17.76ZM15.984 16.368L16.9774 16.4826L17.4154 12.6862L15.1741 15.7815L15.984 16.368ZM14.928 17.832L15.7311 18.4278L15.7356 18.4218L15.74 18.4156L14.928 17.832ZM13.92 19.104L13.1631 18.4503L13.1561 18.4587L13.92 19.104ZM10.656 22.968L9.89207 22.3227L9.18542 23.1592L10.0825 23.7872L10.656 22.968ZM11.664 23.592L11.1851 24.4699L11.2085 24.4826L11.2325 24.4941L11.664 23.592ZM12.84 24L13.7887 24.3162L14.1365 23.2729L13.0649 23.0256L12.84 24ZM12.6709 24.0984C12.1665 24.0003 11.7175 23.8558 11.3189 23.6698L10.4731 25.4822C11.0345 25.7442 11.6415 25.9357 12.2891 26.0616L12.6709 24.0984ZM11.3432 23.6816C10.8988 23.4594 10.4978 23.2255 10.1383 22.9811L9.01369 24.6349C9.45424 24.9345 9.93322 25.2126 10.4488 25.4704L11.3432 23.6816ZM10.1603 22.9965C9.79286 22.7319 9.4684 22.4645 9.18475 22.195L7.80725 23.645C8.1636 23.9835 8.55914 24.3081 8.9917 24.6195L10.1603 22.9965ZM9.20311 22.2129C8.90027 21.9101 8.64141 21.6284 8.42422 21.3678L6.88778 22.6482C7.1506 22.9636 7.45173 23.2899 7.78889 23.6271L9.20311 22.2129ZM8.4331 21.3786L6.0811 18.4746L4.52691 19.7334L6.8789 22.6374L8.4331 21.3786ZM6.06594 18.4564C5.8167 18.1631 5.5381 17.8025 5.22973 17.3708L3.60227 18.5332C3.9339 18.9975 4.2473 19.4049 4.54206 19.7516L6.06594 18.4564ZM5.24348 17.3905C4.94551 16.9514 4.66379 16.521 4.39823 16.0992L2.70577 17.1648C2.98421 17.607 3.27849 18.0566 3.58852 18.5135L5.24348 17.3905ZM2.55912 16.7511C2.60501 17.1335 2.64356 17.5415 2.67454 17.9752L4.66946 17.8328C4.63644 17.3705 4.59499 16.9305 4.54488 16.5129L2.55912 16.7511ZM2.67812 18.0144C2.72275 18.4161 2.744 18.7788 2.744 19.104H4.744C4.744 18.6932 4.71725 18.2559 4.66588 17.7936L2.67812 18.0144ZM2.744 19.104V30H4.744V19.104H2.744ZM3.744 29H2.28V31H3.744V29ZM3.28 30V13.368H1.28V30H3.28ZM2.28 14.368H2.736V12.368H2.28V14.368ZM1.94928 13.9853L8.33328 22.1213L9.90672 20.8867L3.52272 12.7507L1.94928 13.9853ZM8.27634 22.0409C8.45001 22.3138 8.68316 22.571 8.94355 22.8128L10.3045 21.3472C10.1168 21.173 10.014 21.0462 9.96366 20.9671L8.27634 22.0409ZM10.3959 22.7158L17.5719 14.0038L16.0281 12.7322L8.85213 21.4442L10.3959 22.7158ZM16.8 14.368H17.256V12.368H16.8V14.368ZM16.256 13.368V30H18.256V13.368H16.256ZM17.256 29H15.792V31H17.256V29ZM16.792 30V19.104H14.792V30H16.792ZM16.792 19.104C16.792 18.7299 16.807 18.3038 16.8379 17.8244L14.8421 17.6956C14.809 18.2082 14.792 18.6781 14.792 19.104H16.792ZM16.8356 17.8533C16.8831 17.3469 16.9304 16.8902 16.9774 16.4826L14.9906 16.2534C14.9416 16.6778 14.8929 17.1491 14.8444 17.6667L16.8356 17.8533ZM15.1741 15.7815C14.8373 16.2465 14.4846 16.7355 14.116 17.2484L15.74 18.4156C16.1074 17.9045 16.4587 17.4175 16.7939 16.9545L15.1741 15.7815ZM14.1249 17.2362C13.7672 17.7183 13.4468 18.122 13.1632 18.4504L14.6768 19.7576C15.0012 19.382 15.3528 18.9377 15.7311 18.4278L14.1249 17.2362ZM13.1561 18.4587L9.89207 22.3227L11.4199 23.6133L14.6839 19.7493L13.1561 18.4587ZM10.0825 23.7872C10.4338 24.0331 10.8014 24.2606 11.1851 24.4699L12.1429 22.7141C11.8226 22.5394 11.5182 22.3509 11.2295 22.1488L10.0825 23.7872ZM11.2325 24.4941C11.6696 24.7031 12.1312 24.8627 12.6151 24.9744L13.0649 23.0256C12.7168 22.9453 12.3944 22.8329 12.0955 22.6899L11.2325 24.4941ZM11.8913 23.6838L11.5313 24.7638L13.4287 25.3962L13.7887 24.3162L11.8913 23.6838ZM22.4269 25.2V24.2H21.3049L21.4335 25.3146L22.4269 25.2ZM23.6029 28.032L22.8957 28.7392L22.9046 28.7478L23.6029 28.032ZM28.3789 28.656L28.7246 29.5943L28.3789 28.656ZM30.2029 27.84L31.0531 27.3136L30.5623 26.5208L29.7371 26.9551L30.2029 27.84ZM30.8269 28.848L31.3924 29.6727L32.1794 29.133L31.6771 28.3216L30.8269 28.848ZM28.8589 29.832L28.5187 28.8916L28.5122 28.894L28.8589 29.832ZM22.3549 28.656L21.5932 29.304L21.5984 29.3101L21.6037 29.3161L22.3549 28.656ZM21.3469 21.696L20.4002 21.3737L20.3971 21.3828L20.3942 21.392L21.3469 21.696ZM22.4029 19.704L21.6241 19.0767L21.6188 19.0833L21.6135 19.0901L22.4029 19.704ZM24.0589 18.336L24.5237 19.2214L24.5323 19.2169L24.5408 19.2122L24.0589 18.336ZM27.8749 18.072L27.5586 19.0207L27.5717 19.025L27.5849 19.029L27.8749 18.072ZM29.2429 18.792L28.6027 19.5602L28.6199 19.5746L28.6378 19.5882L29.2429 18.792ZM30.1789 19.944L29.2783 20.3787L29.2875 20.3977L29.2974 20.4162L30.1789 19.944ZM30.0829 23.232L29.2381 22.6969V22.6969L30.0829 23.232ZM28.8829 24.384L28.3807 23.5192L28.3745 23.5228L28.3684 23.5265L28.8829 24.384ZM27.2029 25.008L27.0068 24.0274L27.0019 24.0284L27.2029 25.008ZM24.6109 19.416L24.0964 18.5585L24.0899 18.5624L24.0835 18.5664L24.6109 19.416ZM23.4109 20.544L22.6009 19.9575V19.9575L23.4109 20.544ZM22.6189 22.128L21.6677 21.8195L21.6639 21.8312L21.6603 21.843L22.6189 22.128ZM22.3549 23.952H21.3549V24.952H22.3549V23.952ZM27.2509 23.736L27.5216 24.6987L27.5354 24.6948L27.5492 24.6905L27.2509 23.736ZM28.4509 23.136L29.0911 23.9042L29.0911 23.9042L28.4509 23.136ZM29.0269 22.344L29.9756 22.6602L29.9781 22.6527L29.9805 22.6451L29.0269 22.344ZM28.3309 19.656L27.6952 20.4279L27.7006 20.4324L27.7062 20.4369L28.3309 19.656ZM21.4335 25.3146C21.5934 26.701 22.0444 27.8877 22.8958 28.7391L24.31 27.3249C23.8814 26.8963 23.5483 26.195 23.4203 25.0854L21.4335 25.3146ZM22.9046 28.7478C23.8065 29.6278 25.0464 29.992 26.4589 29.992V27.992C25.3754 27.992 24.7112 27.7162 24.3012 27.3162L22.9046 28.7478ZM26.4589 29.992C27.2444 29.992 28.0018 29.8606 28.7246 29.5943L28.0332 27.7177C27.54 27.8994 27.0173 27.992 26.4589 27.992V29.992ZM28.7246 29.5943C29.3761 29.3543 30.0241 29.0641 30.6686 28.7249L29.7371 26.9551C29.1656 27.2559 28.5976 27.5097 28.0332 27.7177L28.7246 29.5943ZM29.3526 28.3664L29.9766 29.3744L31.6771 28.3216L31.0531 27.3136L29.3526 28.3664ZM30.2613 28.0233C29.7824 28.3517 29.2047 28.6435 28.5187 28.8916L29.199 30.7724C30.017 30.4765 30.7514 30.1123 31.3924 29.6727L30.2613 28.0233ZM28.5122 28.894C27.8979 29.121 27.2165 29.24 26.4589 29.24V31.24C27.4292 31.24 28.3479 31.087 29.2055 30.77L28.5122 28.894ZM26.4589 29.24C24.8506 29.24 23.793 28.7776 23.106 27.9959L21.6037 29.3161C22.7728 30.6464 24.4512 31.24 26.4589 31.24V29.24ZM23.1165 28.008C22.411 27.1787 21.9869 25.9148 21.9869 24.072H19.9869C19.9869 26.1972 20.4748 27.9893 21.5932 29.304L23.1165 28.008ZM21.9869 24.072C21.9869 23.3376 22.0926 22.6485 22.2995 22L20.3942 21.392C20.1212 22.2475 19.9869 23.1424 19.9869 24.072H21.9869ZM22.2935 22.0183C22.5169 21.3622 22.8183 20.7987 23.1922 20.3179L21.6135 19.0901C21.0914 19.7613 20.6889 20.5258 20.4002 21.3737L22.2935 22.0183ZM23.1816 20.3313C23.5618 19.8594 24.0078 19.4923 24.5237 19.2214L23.594 17.4506C22.83 17.8517 22.1719 18.3966 21.6241 19.0767L23.1816 20.3313ZM24.5408 19.2122C25.0224 18.9473 25.5666 18.808 26.1949 18.808V16.808C25.2551 16.808 24.3754 17.0207 23.577 17.4598L24.5408 19.2122ZM26.1949 18.808C26.6863 18.808 27.1389 18.8808 27.5586 19.0207L28.1911 17.1233C27.5548 16.9112 26.8875 16.808 26.1949 16.808V18.808ZM27.5849 19.029C27.998 19.1542 28.3318 19.3345 28.6027 19.5602L29.8831 18.0238C29.386 17.6095 28.8077 17.3098 28.1649 17.115L27.5849 19.029ZM28.6378 19.5882C28.9089 19.7942 29.1211 20.0531 29.2783 20.3787L31.0794 19.5092C30.7886 18.9069 30.3769 18.3978 29.848 17.9958L28.6378 19.5882ZM29.2974 20.4162C29.4519 20.7046 29.5389 21.0436 29.5389 21.456H31.5389C31.5389 20.7484 31.3859 20.0794 31.0604 19.4718L29.2974 20.4162ZM29.5389 21.456C29.5389 22.0158 29.4189 22.4114 29.2381 22.6969L30.9277 23.7671C31.3548 23.0926 31.5389 22.3042 31.5389 21.456H29.5389ZM29.2381 22.6969C29.021 23.0397 28.739 23.3112 28.3807 23.5192L29.385 25.2488C30.0187 24.8808 30.5368 24.3843 30.9277 23.7671L29.2381 22.6969ZM28.3684 23.5265C28.0015 23.7466 27.5526 23.9182 27.0068 24.0274L27.399 25.9886C28.1331 25.8418 28.8043 25.5974 29.3974 25.2415L28.3684 23.5265ZM27.0019 24.0284C26.4476 24.1421 25.8671 24.2 25.2589 24.2V26.2C25.9947 26.2 26.7102 26.1299 27.4038 25.9876L27.0019 24.0284ZM25.2589 24.2H22.4269V26.2H25.2589V24.2ZM26.1949 17.984C25.4431 17.984 24.7365 18.1745 24.0964 18.5585L25.1254 20.2735C25.4453 20.0815 25.7946 19.984 26.1949 19.984V17.984ZM24.0835 18.5664C23.5037 18.9262 23.0093 19.3935 22.6009 19.9575L24.2208 21.1305C24.4844 20.7665 24.79 20.4818 25.1382 20.2656L24.0835 18.5664ZM22.6009 19.9575C22.1985 20.5132 21.8891 21.1366 21.6677 21.8195L23.5701 22.4365C23.7326 21.9354 23.9512 21.5028 24.2208 21.1305L22.6009 19.9575ZM21.6603 21.843C21.4566 22.5285 21.3549 23.2325 21.3549 23.952H23.3549C23.3549 23.4235 23.4292 22.9115 23.5774 22.413L21.6603 21.843ZM22.3549 24.952H25.2589V22.952H22.3549V24.952ZM25.2589 24.952C26.1232 24.952 26.8878 24.8769 27.5216 24.6987L26.9801 22.7733C26.5899 22.8831 26.0266 22.952 25.2589 22.952V24.952ZM27.5492 24.6905C28.1366 24.5069 28.6689 24.256 29.0911 23.9042L27.8107 22.3678C27.6568 22.496 27.3892 22.6451 26.9526 22.7815L27.5492 24.6905ZM29.0911 23.9042C29.4884 23.5731 29.8083 23.1619 29.9756 22.6602L28.0782 22.0278C28.0534 22.1021 27.9893 22.2189 27.8107 22.3678L29.0911 23.9042ZM29.9805 22.6451C30.104 22.254 30.1709 21.8564 30.1709 21.456H28.1709C28.1709 21.6316 28.1418 21.826 28.0733 22.0429L29.9805 22.6451ZM30.1709 21.456C30.1709 20.4173 29.7658 19.5233 28.9556 18.8751L27.7062 20.4369C28.016 20.6847 28.1709 20.9907 28.1709 21.456H30.1709ZM28.9666 18.8841C28.2026 18.2549 27.2475 17.984 26.1949 17.984V19.984C26.9022 19.984 27.3712 20.1611 27.6952 20.4279L28.9666 18.8841ZM41.3756 30H40.3756V31H41.3756V30ZM40.7276 19.752L39.9831 20.4195L39.9952 20.4331L40.0078 20.4461L40.7276 19.752ZM37.9436 19.224L38.2183 20.1855L38.2392 20.1796L38.2599 20.1727L37.9436 19.224ZM36.9596 19.68L36.4146 18.8416L36.4047 18.848L36.3949 18.8547L36.9596 19.68ZM35.4956 21.408L34.5786 21.0093L34.4956 21.2V21.408H35.4956ZM35.4956 30V31H36.4956V30H35.4956ZM34.1756 30H33.1756V31H34.1756V30ZM33.9356 19.872L34.881 19.546L33.9356 19.872ZM33.2156 18.672L32.5191 17.9544L31.8083 18.6443L32.4915 19.3617L33.2156 18.672ZM34.0316 17.88L34.626 17.0758L33.9439 16.5716L33.3352 17.1624L34.0316 17.88ZM34.8716 18.84L33.985 19.3026L33.9973 19.326L34.0107 19.3487L34.8716 18.84ZM35.3276 19.992L34.3532 20.2169L34.9182 22.665L36.19 20.4982L35.3276 19.992ZM36.9356 18.36L37.4176 19.2362L37.4249 19.2321L36.9356 18.36ZM42.4316 20.04L41.4912 20.3801L42.204 22.3506L43.2875 20.5571L42.4316 20.04ZM44.1356 18.36L44.5996 19.2458L44.6078 19.2415L44.6159 19.2371L44.1356 18.36ZM48.8876 18.816L48.1888 19.5314L48.1972 19.5394L48.8876 18.816ZM49.8956 23.256L48.8978 23.1895L48.8968 23.2055L48.8962 23.2215L49.8956 23.256ZM49.8236 24.576L48.8266 24.4993L48.8251 24.5184L48.8244 24.5376L49.8236 24.576ZM49.7516 25.776L48.7551 25.693L48.7534 25.7136L48.7525 25.7344L49.7516 25.776ZM49.8476 28.44L50.834 28.2756L49.8476 28.44ZM50.3036 30V31H51.7807L51.2321 29.6286L50.3036 30ZM49.0316 30L48.1493 30.4706L48.4316 31H49.0316V30ZM48.5276 28.392L47.5362 28.5225L47.5366 28.5259L48.5276 28.392ZM48.4316 25.704L47.4328 25.6564V25.6564L48.4316 25.704ZM48.4796 24.648L47.4831 24.565L47.4814 24.5847L47.4806 24.6046L48.4796 24.648ZM48.5516 23.424L47.5544 23.3501L47.553 23.3685L47.5523 23.387L48.5516 23.424ZM47.9756 19.752L47.2182 20.4049L47.2246 20.4123L47.2311 20.4195L47.9756 19.752ZM42.6956 21.432L41.8103 20.967L41.6956 21.1854V21.432H42.6956ZM42.6956 30V31H43.6956V30H42.6956ZM42.3756 30V21.936H40.3756V30H42.3756ZM42.3756 21.936C42.3756 20.8218 42.1429 19.779 41.4475 19.0579L40.0078 20.4461C40.1764 20.621 40.3756 21.0342 40.3756 21.936H42.3756ZM41.4722 19.0845C40.8197 18.3566 39.9171 18.056 38.9276 18.056V20.056C39.5061 20.056 39.8036 20.2194 39.9831 20.4195L41.4722 19.0845ZM38.9276 18.056C38.4893 18.056 38.0546 18.1329 37.6274 18.2753L38.2599 20.1727C38.5047 20.0911 38.7259 20.056 38.9276 20.056V18.056ZM37.6689 18.2625C37.2288 18.3882 36.8105 18.5843 36.4146 18.8416L37.5046 20.5184C37.7488 20.3597 37.9864 20.2518 38.2183 20.1855L37.6689 18.2625ZM36.3949 18.8547C36.0207 19.1108 35.6798 19.4136 35.3722 19.7596L36.867 21.0884C37.0714 20.8584 37.2906 20.6652 37.5243 20.5053L36.3949 18.8547ZM35.3722 19.7596C35.0431 20.1299 34.7789 20.5484 34.5786 21.0093L36.4127 21.8067C36.5323 21.5316 36.6841 21.2941 36.867 21.0884L35.3722 19.7596ZM34.4956 21.408V21.528H36.4956V21.408H34.4956ZM34.4956 21.528V30H36.4956V21.528H34.4956ZM35.4956 29H34.1756V31H35.4956V29ZM35.1756 30V21.528H33.1756V30H35.1756ZM35.1756 21.528C35.1756 20.8089 35.0863 20.1413 34.881 19.546L32.9903 20.198C33.105 20.5307 33.1756 20.9671 33.1756 21.528H35.1756ZM34.881 19.546C34.677 18.9543 34.3644 18.4282 33.9398 17.9823L32.4915 19.3617C32.7068 19.5878 32.8743 19.8617 32.9903 20.198L34.881 19.546ZM33.9121 19.3896L34.7281 18.5976L33.3352 17.1624L32.5191 17.9544L33.9121 19.3896ZM33.4372 18.6842C33.6958 18.8753 33.8702 19.0824 33.985 19.3026L35.7582 18.3774C35.4891 17.8616 35.1034 17.4287 34.626 17.0758L33.4372 18.6842ZM34.0107 19.3487C34.1643 19.6086 34.2793 19.8963 34.3532 20.2169L36.302 19.7671C36.184 19.2557 35.995 18.7754 35.7326 18.3313L34.0107 19.3487ZM36.19 20.4982C36.5464 19.8911 36.9603 19.4877 37.4175 19.2362L36.4537 17.4838C35.631 17.9363 34.9729 18.6209 34.4652 19.4858L36.19 20.4982ZM37.4249 19.2321C37.9282 18.9498 38.4712 18.808 39.0716 18.808V16.808C38.1361 16.808 37.2551 17.0342 36.4464 17.4879L37.4249 19.2321ZM39.0716 18.808C39.6929 18.808 40.1933 18.9517 40.6077 19.2093L41.6636 17.5107C40.8939 17.0323 40.0183 16.808 39.0716 16.808V18.808ZM40.6077 19.2093C40.9814 19.4416 41.2838 19.8067 41.4912 20.3801L43.372 19.6999C43.0354 18.7693 42.4738 18.0144 41.6636 17.5107L40.6077 19.2093ZM43.2875 20.5571C43.6745 19.9166 44.117 19.4986 44.5996 19.2458L43.6716 17.4742C42.8103 17.9254 42.1168 18.6274 41.5757 19.5229L43.2875 20.5571ZM44.6159 19.2371C45.1655 18.9361 45.6657 18.808 46.1276 18.808V16.808C45.2775 16.808 44.4497 17.0479 43.6553 17.4829L44.6159 19.2371ZM46.1276 18.808C47.0736 18.808 47.7237 19.077 48.1889 19.5314L49.5864 18.1006C48.6755 17.2109 47.4856 16.808 46.1276 16.808V18.808ZM48.1972 19.5394C48.6539 19.9754 48.9436 20.6363 48.9436 21.672H50.9436C50.9436 20.2437 50.5293 19.0006 49.5781 18.0926L48.1972 19.5394ZM48.9436 21.672C48.9436 22.23 48.9281 22.7354 48.8978 23.1895L50.8934 23.3225C50.9271 22.8166 50.9436 22.266 50.9436 21.672H48.9436ZM48.8962 23.2215C48.8807 23.673 48.8574 24.0988 48.8266 24.4993L50.8207 24.6527C50.8539 24.2212 50.8786 23.767 50.895 23.2905L48.8962 23.2215ZM48.8244 24.5376C48.8089 24.9399 48.7857 25.3249 48.7551 25.693L50.7482 25.859C50.7815 25.4591 50.8064 25.0441 50.8229 24.6144L48.8244 24.5376ZM48.7525 25.7344C48.7359 26.1322 48.7276 26.5301 48.7276 26.928H50.7276C50.7276 26.5579 50.7353 26.1878 50.7508 25.8176L48.7525 25.7344ZM48.7276 26.928C48.7276 27.5065 48.7715 28.0657 48.8612 28.6044L50.834 28.2756C50.7638 27.8543 50.7276 27.4055 50.7276 26.928H48.7276ZM48.8612 28.6044C48.9555 29.1697 49.1305 29.7598 49.3751 30.3714L51.2321 29.6286C51.0287 29.1202 50.8998 28.6703 50.834 28.2756L48.8612 28.6044ZM50.3036 29H49.0316V31H50.3036V29ZM49.914 29.5294C49.7191 29.1641 49.5843 28.7438 49.5186 28.2581L47.5366 28.5259C47.631 29.2242 47.8321 29.8759 48.1493 30.4706L49.914 29.5294ZM49.5191 28.2615C49.4431 27.6839 49.4076 27.1931 49.4076 26.784H47.4076C47.4076 27.3029 47.4522 27.8841 47.5362 28.5225L49.5191 28.2615ZM49.4076 26.784C49.4076 26.4137 49.4153 26.0697 49.4305 25.7516L47.4328 25.6564C47.4159 26.0103 47.4076 26.3863 47.4076 26.784H49.4076ZM49.4305 25.7516C49.4466 25.4141 49.4626 25.0607 49.4787 24.6914L47.4806 24.6046C47.4646 24.9713 47.4487 25.3219 47.4328 25.6564L49.4305 25.7516ZM49.4762 24.731C49.5096 24.33 49.5344 23.9066 49.5509 23.461L47.5523 23.387C47.5368 23.8054 47.5137 24.198 47.4831 24.565L49.4762 24.731ZM49.5489 23.4979C49.5831 23.0354 49.5996 22.5139 49.5996 21.936H47.5996C47.5996 22.4781 47.5841 22.9486 47.5544 23.3501L49.5489 23.4979ZM49.5996 21.936C49.5996 20.836 49.3742 19.8139 48.7202 19.0845L47.2311 20.4195C47.4091 20.6181 47.5996 21.052 47.5996 21.936H49.5996ZM48.733 19.0991C48.0852 18.3475 47.1563 18.056 46.1516 18.056V20.056C46.779 20.056 47.0661 20.2285 47.2182 20.4049L48.733 19.0991ZM46.1516 18.056C44.2211 18.056 42.7705 19.1389 41.8103 20.967L43.5809 21.897C44.2847 20.5571 45.1382 20.056 46.1516 20.056V18.056ZM41.6956 21.432V21.672H43.6956V21.432H41.6956ZM41.6956 21.672V30H43.6956V21.672H41.6956ZM42.6956 29H41.3756V31H42.6956V29ZM56.3608 29.784L56.7426 28.8597L56.3608 29.784ZM54.4648 28.512L53.7268 29.1868L53.7368 29.1978L53.7472 29.2085L54.4648 28.512ZM53.2648 26.544L54.1987 26.1864L53.2648 26.544ZM53.2648 21.6L54.1987 21.9577L54.2011 21.9511L53.2648 21.6ZM54.4648 19.608L53.7372 18.922L53.732 18.9276L53.7268 18.9332L54.4648 19.608ZM56.3608 18.288L55.9621 17.3709L56.3608 18.288ZM61.2328 18.288L60.8267 19.2018L60.8388 19.2072L60.8511 19.2123L61.2328 18.288ZM63.1048 19.584L62.3668 20.2588L62.3768 20.2698L62.3872 20.2805L63.1048 19.584ZM64.3288 21.552L63.3925 21.9031L63.395 21.9096L64.3288 21.552ZM64.3288 26.496L63.3925 26.1449L64.3288 26.496ZM63.1048 28.488L62.3772 27.802L62.3766 27.8026L63.1048 28.488ZM61.2328 29.784L61.6218 30.7053L61.6315 30.7011L61.2328 29.784ZM56.9128 19.416L57.3067 20.3351L56.9128 19.416ZM55.4488 20.424L54.7285 19.7304L54.7217 19.7374L54.7151 19.7446L55.4488 20.424ZM54.5128 21.984L53.5745 21.6383L53.5704 21.6493L53.5667 21.6603L54.5128 21.984ZM54.5128 26.064L53.5641 26.3802L53.5691 26.395L53.5745 26.4097L54.5128 26.064ZM55.4488 27.624L54.7151 28.3034L54.7217 28.3106L54.7285 28.3176L55.4488 27.624ZM60.6808 28.632L61.0748 29.5512L61.087 29.5458L60.6808 28.632ZM62.1448 27.6L62.8786 28.2794L62.8847 28.2728L62.8908 28.266L62.1448 27.6ZM63.0568 26.016L62.1156 25.6781L62.1131 25.6852L62.1106 25.6923L63.0568 26.016ZM63.0568 21.96L62.1106 22.2837L62.1158 22.2989L62.1215 22.3139L63.0568 21.96ZM62.1448 20.4L61.4111 21.0794V21.0794L62.1448 20.4ZM60.6808 19.416L60.2869 20.3351L60.3025 20.3418L60.3184 20.348L60.6808 19.416ZM58.8088 29.24C58.0274 29.24 57.3433 29.1078 56.7426 28.8597L55.9791 30.7083C56.8504 31.0682 57.7982 31.24 58.8088 31.24V29.24ZM56.7426 28.8597C56.1264 28.6052 55.6104 28.2565 55.1824 27.8155L53.7472 29.2085C54.3752 29.8555 55.1232 30.3548 55.9791 30.7083L56.7426 28.8597ZM55.2028 27.8372C54.7805 27.3753 54.4446 26.8286 54.1987 26.1864L52.331 26.9016C52.661 27.7634 53.1251 28.5287 53.7268 29.1868L55.2028 27.8372ZM54.1987 26.1864C53.959 25.5607 53.8328 24.8595 53.8328 24.072H51.8328C51.8328 25.0765 51.9946 26.0233 52.331 26.9016L54.1987 26.1864ZM53.8328 24.072C53.8328 23.2845 53.959 22.5833 54.1987 21.9576L52.331 21.2424C51.9946 22.1207 51.8328 23.0675 51.8328 24.072H53.8328ZM54.2011 21.9511C54.448 21.2929 54.7838 20.7411 55.2028 20.2828L53.7268 18.9332C53.1219 19.5949 52.6577 20.3711 52.3285 21.2489L54.2011 21.9511ZM55.1924 20.294C55.6236 19.8367 56.1423 19.4735 56.7595 19.2051L55.9621 17.3709C55.1074 17.7425 54.362 18.2593 53.7372 18.922L55.1924 20.294ZM56.7595 19.2051C57.3558 18.9458 58.034 18.808 58.8088 18.808V16.808C57.7916 16.808 56.8378 16.9902 55.9621 17.3709L56.7595 19.2051ZM58.8088 18.808C59.5841 18.808 60.251 18.9459 60.8267 19.2018L61.639 17.3742C60.7747 16.9901 59.8256 16.808 58.8088 16.808V18.808ZM60.8511 19.2123C61.4583 19.4631 61.9587 19.8124 62.3668 20.2588L63.8428 18.9092C63.2269 18.2356 62.4793 17.7209 61.6146 17.3637L60.8511 19.2123ZM62.3872 20.2805C62.8117 20.7178 63.1488 21.2534 63.3925 21.9031L65.2651 21.2009C64.9328 20.3146 64.454 19.5382 63.8224 18.8875L62.3872 20.2805ZM63.395 21.9096C63.6353 22.5373 63.7608 23.2309 63.7608 24H65.7608C65.7608 23.0091 65.5983 22.0707 65.2627 21.1944L63.395 21.9096ZM63.7608 24C63.7608 24.7872 63.6347 25.4991 63.3925 26.1449L65.2651 26.8471C65.599 25.9569 65.7608 25.0048 65.7608 24H63.7608ZM63.3925 26.1449C63.148 26.7968 62.8082 27.3449 62.3772 27.802L63.8324 29.174C64.4574 28.5111 64.9336 27.7312 65.2651 26.8471L63.3925 26.1449ZM62.3766 27.8026C61.9643 28.2407 61.455 28.5969 60.8341 28.8669L61.6315 30.7011C62.4826 30.3311 63.2213 29.8233 63.833 29.1734L62.3766 27.8026ZM60.8438 28.8628C60.2637 29.1077 59.5906 29.24 58.8088 29.24V31.24C59.819 31.24 60.762 31.0683 61.6218 30.7052L60.8438 28.8628ZM58.8088 18.056C57.9903 18.056 57.2212 18.1959 56.5189 18.4969L57.3067 20.3351C57.7244 20.1561 58.2194 20.056 58.8088 20.056V18.056ZM56.5189 18.4969C55.8381 18.7886 55.2386 19.2006 54.7285 19.7304L56.1691 21.1176C56.491 20.7834 56.8675 20.5234 57.3067 20.3351L56.5189 18.4969ZM54.7151 19.7446C54.2169 20.2826 53.8394 20.9191 53.5745 21.6383L55.4512 22.3297C55.6342 21.8329 55.8807 21.4294 56.1826 21.1034L54.7151 19.7446ZM53.5667 21.6603C53.3182 22.3864 53.2008 23.1696 53.2008 24H55.2008C55.2008 23.3584 55.2914 22.7976 55.459 22.3077L53.5667 21.6603ZM53.2008 24C53.2008 24.8443 53.3177 25.6408 53.5641 26.3802L55.4615 25.7478C55.292 25.2392 55.2008 24.6597 55.2008 24H53.2008ZM53.5745 26.4097C53.8394 27.1289 54.2169 27.7654 54.7151 28.3034L56.1826 26.9446C55.8807 26.6186 55.6342 26.2151 55.4512 25.7183L53.5745 26.4097ZM54.7285 28.3176C55.2386 28.8474 55.8381 29.2594 56.5189 29.5511L57.3067 27.7129C56.8675 27.5246 56.491 27.2646 56.1691 26.9304L54.7285 28.3176ZM56.5189 29.5511C57.2212 29.8521 57.9903 29.992 58.8088 29.992V27.992C58.2194 27.992 57.7244 27.8919 57.3067 27.7129L56.5189 29.5511ZM58.8088 29.992C59.6148 29.992 60.3751 29.851 61.0747 29.5511L60.2869 27.7129C59.8665 27.893 59.3789 27.992 58.8088 27.992V29.992ZM61.087 29.5458C61.7781 29.2387 62.38 28.8178 62.8786 28.2794L61.4111 26.9206C61.1096 27.2462 60.7356 27.5133 60.2747 27.7182L61.087 29.5458ZM62.8908 28.266C63.3858 27.7116 63.7548 27.0651 64.003 26.3397L62.1106 25.6923C61.9428 26.1829 61.7039 26.5924 61.3989 26.934L62.8908 28.266ZM63.998 26.3539C64.2658 25.608 64.3928 24.8039 64.3928 23.952H62.3928C62.3928 24.6041 62.2959 25.176 62.1156 25.6781L63.998 26.3539ZM64.3928 23.952C64.3928 23.1144 64.2652 22.328 63.9921 21.6061L62.1215 22.3139C62.2964 22.776 62.3928 23.3175 62.3928 23.952H64.3928ZM64.003 21.6363C63.754 20.9084 63.3818 20.2641 62.8786 19.7206L61.4111 21.0794C61.7078 21.3999 61.9437 21.7956 62.1106 22.2837L64.003 21.6363ZM62.8786 19.7206C62.3704 19.1718 61.7534 18.7601 61.0433 18.484L60.3184 20.348C60.7603 20.5199 61.1192 20.7642 61.4111 21.0794L62.8786 19.7206ZM61.0747 18.4969C60.3751 18.197 59.6148 18.056 58.8088 18.056V20.056C59.3789 20.056 59.8665 20.155 60.2869 20.3351L61.0747 18.4969ZM74.2091 19.248L74.0987 20.2419L75.2091 20.3653V19.248H74.2091ZM73.7291 19.176L73.5122 20.1522L73.5311 20.1564L73.5502 20.1599L73.7291 19.176ZM73.2251 19.104L73.1346 20.0999L73.1421 20.1005L73.2251 19.104ZM69.4331 21.432L68.5626 20.9399L68.4331 21.1689V21.432H69.4331ZM69.4331 30V31H70.4331V30H69.4331ZM68.1131 30H67.1131V31H68.1131V30ZM67.8731 19.872L68.8185 19.546L67.8731 19.872ZM67.1531 18.672L66.4566 17.9544L65.7458 18.6443L66.429 19.3617L67.1531 18.672ZM67.9691 17.88L68.5635 17.0758L67.8814 16.5716L67.2727 17.1624L67.9691 17.88ZM68.8331 18.84L67.9626 19.3321L67.9673 19.3404L67.9722 19.3487L68.8331 18.84ZM69.2891 19.992L68.3147 20.2169L68.8934 22.7244L70.1597 20.4841L69.2891 19.992ZM70.7531 18.36L71.2853 19.2066L71.2939 19.2013L71.3023 19.1957L70.7531 18.36ZM73.7771 17.904L73.5346 18.8741L73.5577 18.8799L73.581 18.8846L73.7771 17.904ZM74.2091 18H75.2091V17.2192L74.4517 17.0299L74.2091 18ZM74.3196 18.2541C74.203 18.2412 74.0663 18.2209 73.908 18.1921L73.5502 20.1599C73.7439 20.1951 73.9272 20.2228 74.0987 20.2419L74.3196 18.2541ZM73.9461 18.1998C73.747 18.1556 73.5324 18.1261 73.3082 18.1075L73.1421 20.1005C73.3018 20.1139 73.4233 20.1324 73.5122 20.1522L73.9461 18.1998ZM73.3157 18.1081C73.1029 18.0888 72.8718 18.08 72.6251 18.08V20.08C72.8265 20.08 72.9954 20.0872 73.1346 20.0999L73.3157 18.1081ZM72.6251 18.08C71.7387 18.08 70.9299 18.3673 70.2303 18.9185L71.468 20.4895C71.8243 20.2087 72.1996 20.08 72.6251 20.08V18.08ZM70.2303 18.9185C69.5774 19.4328 69.0267 20.1188 68.5626 20.9399L70.3037 21.9241C70.6716 21.2732 71.0648 20.8072 71.468 20.4895L70.2303 18.9185ZM68.4331 21.432V21.528H70.4331V21.432H68.4331ZM68.4331 21.528V30H70.4331V21.528H68.4331ZM69.4331 29H68.1131V31H69.4331V29ZM69.1131 30V21.528H67.1131V30H69.1131ZM69.1131 21.528C69.1131 20.8089 69.0238 20.1413 68.8185 19.546L66.9277 20.198C67.0425 20.5307 67.1131 20.9671 67.1131 21.528H69.1131ZM68.8185 19.546C68.6145 18.9543 68.3019 18.4282 67.8773 17.9823L66.429 19.3617C66.6443 19.5878 66.8118 19.8617 66.9277 20.198L68.8185 19.546ZM67.8496 19.3896L68.6656 18.5976L67.2727 17.1624L66.4566 17.9544L67.8496 19.3896ZM67.3747 18.6842C67.6392 18.8797 67.8292 19.0962 67.9626 19.3321L69.7037 18.3479C69.421 17.8478 69.035 17.4243 68.5635 17.0758L67.3747 18.6842ZM67.9722 19.3487C68.1258 19.6086 68.2408 19.8963 68.3147 20.2169L70.2635 19.7671C70.1455 19.2557 69.9565 18.7754 69.6941 18.3313L67.9722 19.3487ZM70.1597 20.4841C70.5162 19.8533 70.8995 19.4491 71.2853 19.2066L70.221 17.5134C69.4868 17.9749 68.8941 18.6587 68.4186 19.4999L70.1597 20.4841ZM71.3023 19.1957C71.6698 18.9542 72.1499 18.808 72.7931 18.808V16.808C71.8364 16.808 70.9564 17.0298 70.2039 17.5243L71.3023 19.1957ZM72.7931 18.808C72.9388 18.808 73.0846 18.8146 73.2306 18.8279L73.4117 16.8361C73.2057 16.8174 72.9995 16.808 72.7931 16.808V18.808ZM73.2306 18.8279C73.3714 18.8407 73.47 18.858 73.5346 18.8741L74.0197 16.9339C73.8282 16.886 73.6229 16.8553 73.4117 16.8361L73.2306 18.8279ZM73.581 18.8846C73.7289 18.9142 73.8571 18.9428 73.9666 18.9701L74.4517 17.0299C74.3052 16.9932 74.1453 16.9578 73.9732 16.9234L73.581 18.8846ZM73.2091 18V19.248H75.2091V18H73.2091ZM77.1066 25.2V24.2H75.9845L76.1132 25.3146L77.1066 25.2ZM78.2826 28.032L77.5754 28.7392L77.5842 28.7478L78.2826 28.032ZM83.0586 28.656L83.4043 29.5943L83.0586 28.656ZM84.8826 27.84L85.7328 27.3136L85.242 26.5208L84.4168 26.9551L84.8826 27.84ZM85.5066 28.848L86.0721 29.6727L86.8591 29.133L86.3568 28.3216L85.5066 28.848ZM83.5386 29.832L83.1984 28.8916L83.1919 28.894L83.5386 29.832ZM77.0346 28.656L76.2729 29.304L76.2781 29.3101L76.2834 29.3161L77.0346 28.656ZM76.0266 21.696L75.0799 21.3737L75.0768 21.3828L75.0739 21.392L76.0266 21.696ZM77.0826 19.704L76.3038 19.0767L76.2985 19.0833L76.2932 19.0901L77.0826 19.704ZM78.7386 18.336L79.2034 19.2214L79.212 19.2169L79.2205 19.2122L78.7386 18.336ZM82.5546 18.072L82.2383 19.0207L82.2514 19.025L82.2646 19.029L82.5546 18.072ZM83.9226 18.792L83.2824 19.5602L83.2996 19.5746L83.3175 19.5882L83.9226 18.792ZM84.8586 19.944L83.958 20.3787L83.9672 20.3977L83.9771 20.4162L84.8586 19.944ZM84.7626 23.232L83.9177 22.6969L83.9177 22.6969L84.7626 23.232ZM83.5626 24.384L83.0604 23.5192L83.0542 23.5228L83.0481 23.5265L83.5626 24.384ZM81.8826 25.008L81.6864 24.0274L81.6816 24.0284L81.8826 25.008ZM79.2906 19.416L78.7761 18.5585L78.7696 18.5624L78.7632 18.5664L79.2906 19.416ZM78.0906 20.544L77.2806 19.9575V19.9575L78.0906 20.544ZM77.2986 22.128L76.3473 21.8195L76.3435 21.8312L76.34 21.843L77.2986 22.128ZM77.0346 23.952H76.0346V24.952H77.0346V23.952ZM81.9306 23.736L82.2013 24.6987L82.2151 24.6948L82.2288 24.6905L81.9306 23.736ZM83.1306 23.136L83.7707 23.9042V23.9042L83.1306 23.136ZM83.7066 22.344L84.6552 22.6602L84.6578 22.6527L84.6601 22.6451L83.7066 22.344ZM83.0106 19.656L82.3749 20.4279L82.3803 20.4324L82.3859 20.4369L83.0106 19.656ZM76.1132 25.3146C76.2731 26.701 76.7241 27.8877 77.5755 28.7391L78.9897 27.3249C78.5611 26.8963 78.228 26.195 78.1 25.0854L76.1132 25.3146ZM77.5842 28.7478C78.4862 29.6278 79.726 29.992 81.1386 29.992V27.992C80.0551 27.992 79.3909 27.7162 78.9809 27.3162L77.5842 28.7478ZM81.1386 29.992C81.9241 29.992 82.6815 29.8606 83.4043 29.5943L82.7129 27.7177C82.2196 27.8994 81.697 27.992 81.1386 27.992V29.992ZM83.4043 29.5943C84.0558 29.3543 84.7038 29.0641 85.3483 28.7249L84.4168 26.9551C83.8453 27.2559 83.2773 27.5097 82.7129 27.7177L83.4043 29.5943ZM84.0323 28.3664L84.6563 29.3744L86.3568 28.3216L85.7328 27.3136L84.0323 28.3664ZM84.941 28.0233C84.462 28.3517 83.8844 28.6435 83.1984 28.8916L83.8787 30.7724C84.6967 30.4765 85.4311 30.1123 86.0721 29.6727L84.941 28.0233ZM83.1919 28.894C82.5776 29.121 81.8962 29.24 81.1386 29.24V31.24C82.1089 31.24 83.0276 31.087 83.8852 30.77L83.1919 28.894ZM81.1386 29.24C79.5303 29.24 78.4727 28.7776 77.7857 27.9959L76.2834 29.3161C77.4525 30.6464 79.1309 31.24 81.1386 31.24V29.24ZM77.7962 28.008C77.0906 27.1787 76.6666 25.9148 76.6666 24.072H74.6666C74.6666 26.1972 75.1545 27.9893 76.2729 29.304L77.7962 28.008ZM76.6666 24.072C76.6666 23.3376 76.7722 22.6485 76.9792 22L75.0739 21.392C74.8009 22.2475 74.6666 23.1424 74.6666 24.072H76.6666ZM76.9732 22.0183C77.1965 21.3622 77.498 20.7987 77.8719 20.3179L76.2932 19.0901C75.7711 19.7613 75.3686 20.5258 75.0799 21.3737L76.9732 22.0183ZM77.8613 20.3313C78.2415 19.8594 78.6875 19.4923 79.2034 19.2214L78.2737 17.4506C77.5097 17.8517 76.8516 18.3966 76.3038 19.0767L77.8613 20.3313ZM79.2205 19.2122C79.7021 18.9473 80.2463 18.808 80.8746 18.808V16.808C79.9348 16.808 79.0551 17.0207 78.2566 17.4598L79.2205 19.2122ZM80.8746 18.808C81.366 18.808 81.8186 18.8808 82.2383 19.0207L82.8708 17.1233C82.2345 16.9112 81.5672 16.808 80.8746 16.808V18.808ZM82.2646 19.029C82.6777 19.1542 83.0115 19.3345 83.2824 19.5602L84.5627 18.0238C84.0656 17.6095 83.4874 17.3098 82.8446 17.115L82.2646 19.029ZM83.3175 19.5882C83.5886 19.7942 83.8008 20.0531 83.958 20.3787L85.7591 19.5092C85.4683 18.9069 85.0565 18.3978 84.5276 17.9958L83.3175 19.5882ZM83.9771 20.4162C84.1316 20.7046 84.2186 21.0436 84.2186 21.456H86.2186C86.2186 20.7484 86.0656 20.0794 85.74 19.4718L83.9771 20.4162ZM84.2186 21.456C84.2186 22.0158 84.0986 22.4114 83.9177 22.6969L85.6074 23.7671C86.0345 23.0926 86.2186 22.3042 86.2186 21.456H84.2186ZM83.9177 22.6969C83.7006 23.0397 83.4187 23.3112 83.0604 23.5192L84.0647 25.2488C84.6984 24.8808 85.2165 24.3843 85.6074 23.7671L83.9177 22.6969ZM83.0481 23.5265C82.6812 23.7466 82.2323 23.9182 81.6864 24.0274L82.0787 25.9886C82.8128 25.8418 83.484 25.5974 84.0771 25.2415L83.0481 23.5265ZM81.6816 24.0284C81.1273 24.1421 80.5468 24.2 79.9386 24.2V26.2C80.6744 26.2 81.3899 26.1299 82.0835 25.9876L81.6816 24.0284ZM79.9386 24.2H77.1066V26.2H79.9386V24.2ZM80.8746 17.984C80.1228 17.984 79.4161 18.1745 78.7761 18.5585L79.8051 20.2735C80.125 20.0815 80.4743 19.984 80.8746 19.984V17.984ZM78.7632 18.5664C78.1834 18.9262 77.689 19.3935 77.2806 19.9575L78.9005 21.1305C79.1641 20.7665 79.4697 20.4818 79.8179 20.2656L78.7632 18.5664ZM77.2806 19.9575C76.8782 20.5132 76.5688 21.1366 76.3473 21.8195L78.2498 22.4365C78.4123 21.9354 78.6309 21.5028 78.9005 21.1305L77.2806 19.9575ZM76.34 21.843C76.1362 22.5285 76.0346 23.2325 76.0346 23.952H78.0346C78.0346 23.4235 78.1089 22.9115 78.2571 22.413L76.34 21.843ZM77.0346 24.952H79.9386V22.952H77.0346V24.952ZM79.9386 24.952C80.8028 24.952 81.5675 24.8769 82.2013 24.6987L81.6598 22.7733C81.2696 22.8831 80.7063 22.952 79.9386 22.952V24.952ZM82.2288 24.6905C82.8163 24.5069 83.3486 24.256 83.7707 23.9042L82.4904 22.3678C82.3365 22.496 82.0689 22.6451 81.6323 22.7815L82.2288 24.6905ZM83.7707 23.9042C84.1681 23.5731 84.488 23.1619 84.6552 22.6602L82.7579 22.0278C82.7331 22.1021 82.669 22.2189 82.4904 22.3678L83.7707 23.9042ZM84.6601 22.6451C84.7837 22.254 84.8506 21.8564 84.8506 21.456H82.8506C82.8506 21.6316 82.8215 21.826 82.753 22.0429L84.6601 22.6451ZM84.8506 21.456C84.8506 20.4173 84.4455 19.5233 83.6353 18.8751L82.3859 20.4369C82.6956 20.6847 82.8506 20.9907 82.8506 21.456H84.8506ZM83.6463 18.8841C82.8823 18.2549 81.9272 17.984 80.8746 17.984V19.984C81.5819 19.984 82.0509 20.1611 82.3749 20.4279L83.6463 18.8841ZM89.5753 25.2V24.2H88.4533L88.5819 25.3146L89.5753 25.2ZM90.7513 28.032L90.0442 28.7392L90.053 28.7478L90.7513 28.032ZM95.5273 28.656L95.873 29.5943L95.5273 28.656ZM97.3513 27.84L98.2016 27.3136L97.7108 26.5208L96.8856 26.9551L97.3513 27.84ZM97.9753 28.848L98.5408 29.6727L99.3279 29.133L98.8256 28.3216L97.9753 28.848ZM96.0073 29.832L95.6672 28.8916L95.6607 28.894L96.0073 29.832ZM89.5033 28.656L88.7417 29.304L88.7468 29.3101L88.7522 29.3161L89.5033 28.656ZM88.4953 21.696L87.5487 21.3737L87.5456 21.3828L87.5427 21.392L88.4953 21.696ZM89.5513 19.704L88.7726 19.0767L88.7672 19.0833L88.762 19.0901L89.5513 19.704ZM91.2073 18.336L91.6721 19.2214L91.6807 19.2169L91.6892 19.2122L91.2073 18.336ZM95.0233 18.072L94.7071 19.0207L94.7201 19.025L94.7333 19.029L95.0233 18.072ZM96.3913 18.792L95.7511 19.5602L95.7684 19.5746L95.7862 19.5882L96.3913 18.792ZM97.3273 19.944L96.4268 20.3787L96.4359 20.3977L96.4458 20.4162L97.3273 19.944ZM97.2313 23.232L96.3865 22.6969L96.3865 22.6969L97.2313 23.232ZM96.0313 24.384L95.5292 23.5192L95.523 23.5228L95.5168 23.5265L96.0313 24.384ZM94.3513 25.008L94.1552 24.0274L94.1504 24.0284L94.3513 25.008ZM91.7593 19.416L91.2448 18.5585L91.2383 18.5624L91.2319 18.5664L91.7593 19.416ZM90.5593 20.544L89.7494 19.9575V19.9575L90.5593 20.544ZM89.7673 22.128L88.8161 21.8195L88.8123 21.8312L88.8088 21.843L89.7673 22.128ZM89.5033 23.952H88.5033V24.952H89.5033V23.952ZM94.3993 23.736L94.6701 24.6987L94.6839 24.6948L94.6976 24.6905L94.3993 23.736ZM95.5993 23.136L96.2395 23.9042V23.9042L95.5993 23.136ZM96.1753 22.344L97.124 22.6602L97.1265 22.6527L97.1289 22.6451L96.1753 22.344ZM95.4793 19.656L94.8436 20.4279L94.8491 20.4324L94.8546 20.4369L95.4793 19.656ZM88.5819 25.3146C88.7419 26.701 89.1928 27.8877 90.0442 28.7391L91.4584 27.3249C91.0298 26.8963 90.6967 26.195 90.5687 25.0854L88.5819 25.3146ZM90.053 28.7478C90.955 29.6278 92.1948 29.992 93.6073 29.992V27.992C92.5238 27.992 91.8597 27.7162 91.4496 27.3162L90.053 28.7478ZM93.6073 29.992C94.3928 29.992 95.1502 29.8606 95.873 29.5943L95.1816 27.7177C94.6884 27.8994 94.1658 27.992 93.6073 27.992V29.992ZM95.873 29.5943C96.5245 29.3543 97.1726 29.0641 97.8171 28.7249L96.8856 26.9551C96.314 27.2559 95.7461 27.5097 95.1816 27.7177L95.873 29.5943ZM96.501 28.3664L97.125 29.3744L98.8256 28.3216L98.2016 27.3136L96.501 28.3664ZM97.4098 28.0233C96.9308 28.3517 96.3532 28.6435 95.6672 28.8916L96.3475 30.7724C97.1655 30.4765 97.8998 30.1123 98.5408 29.6727L97.4098 28.0233ZM95.6607 28.894C95.0463 29.121 94.3649 29.24 93.6073 29.24V31.24C94.5777 31.24 95.4963 31.087 96.354 30.77L95.6607 28.894ZM93.6073 29.24C91.999 29.24 90.9414 28.7776 90.2545 27.9959L88.7522 29.3161C89.9212 30.6464 91.5996 31.24 93.6073 31.24V29.24ZM90.265 28.008C89.5594 27.1787 89.1353 25.9148 89.1353 24.072H87.1353C87.1353 26.1972 87.6232 27.9893 88.7417 29.304L90.265 28.008ZM89.1353 24.072C89.1353 23.3376 89.241 22.6485 89.448 22L87.5427 21.392C87.2696 22.2475 87.1353 23.1424 87.1353 24.072H89.1353ZM89.442 22.0183C89.6653 21.3622 89.9667 20.7987 90.3407 20.3179L88.762 19.0901C88.2399 19.7613 87.8373 20.5258 87.5487 21.3737L89.442 22.0183ZM90.3301 20.3313C90.7102 19.8594 91.1562 19.4923 91.6721 19.2214L90.7425 17.4506C89.9784 17.8517 89.3204 18.3966 88.7726 19.0767L90.3301 20.3313ZM91.6892 19.2122C92.1708 18.9473 92.7151 18.808 93.3433 18.808V16.808C92.4035 16.808 91.5238 17.0207 90.7254 17.4598L91.6892 19.2122ZM93.3433 18.808C93.8347 18.808 94.2874 18.8808 94.7071 19.0207L95.3395 17.1233C94.7033 16.9112 94.0359 16.808 93.3433 16.808V18.808ZM94.7333 19.029C95.1465 19.1542 95.4802 19.3345 95.7511 19.5602L97.0315 18.0238C96.5344 17.6095 95.9562 17.3098 95.3133 17.115L94.7333 19.029ZM95.7862 19.5882C96.0573 19.7942 96.2695 20.0531 96.4268 20.3787L98.2279 19.5092C97.9371 18.9069 97.5253 18.3978 96.9964 17.9958L95.7862 19.5882ZM96.4458 20.4162C96.6003 20.7046 96.6873 21.0436 96.6873 21.456H98.6873C98.6873 20.7484 98.5343 20.0794 98.2088 19.4718L96.4458 20.4162ZM96.6873 21.456C96.6873 22.0158 96.5674 22.4114 96.3865 22.6969L98.0761 23.7671C98.5033 23.0926 98.6873 22.3042 98.6873 21.456H96.6873ZM96.3865 22.6969C96.1694 23.0397 95.8875 23.3112 95.5292 23.5192L96.5334 25.2488C97.1672 24.8808 97.6852 24.3843 98.0761 23.7671L96.3865 22.6969ZM95.5168 23.5265C95.1499 23.7466 94.7011 23.9182 94.1552 24.0274L94.5474 25.9886C95.2815 25.8418 95.9527 25.5974 96.5458 25.2415L95.5168 23.5265ZM94.1504 24.0284C93.596 24.1421 93.0155 24.2 92.4073 24.2V26.2C93.1431 26.2 93.8586 26.1299 94.5523 25.9876L94.1504 24.0284ZM92.4073 24.2H89.5753V26.2H92.4073V24.2ZM93.3433 17.984C92.5916 17.984 91.8849 18.1745 91.2448 18.5585L92.2738 20.2735C92.5937 20.0815 92.943 19.984 93.3433 19.984V17.984ZM91.2319 18.5664C90.6522 18.9262 90.1578 19.3935 89.7494 19.9575L91.3693 21.1305C91.6328 20.7665 91.9384 20.4818 92.2867 20.2656L91.2319 18.5664ZM89.7494 19.9575C89.347 20.5132 89.0376 21.1366 88.8161 21.8195L90.7185 22.4365C90.8811 21.9354 91.0997 21.5028 91.3693 21.1305L89.7494 19.9575ZM88.8088 21.843C88.605 22.5285 88.5033 23.2325 88.5033 23.952H90.5033C90.5033 23.4235 90.5776 22.9115 90.7258 22.413L88.8088 21.843ZM89.5033 24.952H92.4073V22.952H89.5033V24.952ZM92.4073 24.952C93.2716 24.952 94.0362 24.8769 94.6701 24.6987L94.1286 22.7733C93.7384 22.8831 93.175 22.952 92.4073 22.952V24.952ZM94.6976 24.6905C95.285 24.5069 95.8174 24.256 96.2395 23.9042L94.9591 22.3678C94.8053 22.496 94.5376 22.6451 94.101 22.7815L94.6976 24.6905ZM96.2395 23.9042C96.6369 23.5731 96.9568 23.1619 97.124 22.6602L95.2266 22.0278C95.2019 22.1021 95.1378 22.2189 94.9591 22.3678L96.2395 23.9042ZM97.1289 22.6451C97.2524 22.254 97.3193 21.8564 97.3193 21.456H95.3193C95.3193 21.6316 95.2902 21.826 95.2217 22.0429L97.1289 22.6451ZM97.3193 21.456C97.3193 20.4173 96.9142 19.5233 96.104 18.8751L94.8546 20.4369C95.1644 20.6847 95.3193 20.9907 95.3193 21.456H97.3193ZM96.115 18.8841C95.351 18.2549 94.396 17.984 93.3433 17.984V19.984C94.0506 19.984 94.5196 20.1611 94.8436 20.4279L96.115 18.8841ZM101.204 12.576V11.576H100.204V12.576H101.204ZM102.524 12.576H103.524V11.576H102.524V12.576ZM102.764 28.224L101.819 28.55L102.764 28.224ZM103.484 29.424L104.181 30.1416L104.891 29.4517L104.208 28.7343L103.484 29.424ZM102.668 30.216L102.103 31.0413L102.778 31.5029L103.365 30.9336L102.668 30.216ZM101.924 29.472L101.092 30.0267V30.0267L101.924 29.472ZM101.468 28.56L100.51 28.8473L100.517 28.869L100.524 28.8904L101.468 28.56ZM101.252 27.576L100.257 27.6708L100.259 27.6942L100.262 27.7174L101.252 27.576ZM101.204 13.576H102.524V11.576H101.204V13.576ZM101.524 12.576V26.568H103.524V12.576H101.524ZM101.524 26.568C101.524 27.2871 101.613 27.9547 101.819 28.55L103.709 27.898C103.595 27.5653 103.524 27.1289 103.524 26.568H101.524ZM101.819 28.55C102.023 29.1417 102.335 29.6678 102.76 30.1137L104.208 28.7343C103.993 28.5082 103.825 28.2343 103.709 27.898L101.819 28.55ZM102.788 28.7064L101.972 29.4984L103.365 30.9336L104.181 30.1416L102.788 28.7064ZM103.233 29.3907C103.028 29.2503 102.873 29.0921 102.756 28.9173L101.092 30.0267C101.359 30.4279 101.701 30.7657 102.103 31.0413L103.233 29.3907ZM102.756 28.9173C102.61 28.6976 102.496 28.4688 102.412 28.2296L100.524 28.8904C100.664 29.2912 100.854 29.6704 101.092 30.0267L102.756 28.9173ZM102.426 28.2727C102.344 28.0012 102.283 27.722 102.242 27.4346L100.262 27.7174C100.317 28.102 100.4 28.4788 100.51 28.8473L102.426 28.2727ZM102.248 27.4812C102.219 27.1766 102.204 26.8722 102.204 26.568H100.204C100.204 26.9358 100.222 27.3034 100.257 27.6708L102.248 27.4812ZM102.204 26.568V12.576H100.204V26.568H102.204Z" fill="#0096C6"/>
<path d="M0 0H114H0ZM115 28C115 37.3888 107.389 45 98 45H17C7.61116 45 0 37.3888 0 28C0 36.2843 7.16344 43 16 43H98C106.284 43 113 36.2843 113 28H115ZM0 44V0V44ZM98 0C107.389 0 115 7.61116 115 17V28C115 37.3888 107.389 45 98 45V43C106.284 43 113 36.2843 113 28V16C113 7.16344 106.284 0 98 0Z" fill="url(#paint0_linear_51_1105)" mask="url(#path-1-inside-1_51_1105)"/>
<defs>
<linearGradient id="paint0_linear_51_1105" x1="100.527" y1="44" x2="93.9958" y2="17.3784" gradientUnits="userSpaceOnUse">
<stop stop-color="#0096C6" stop-opacity="0.7"/>
<stop offset="1" stop-color="#A4E9FF" stop-opacity="0"/>
</linearGradient>
</defs>
</svg>
